<svg fill="#fff" id="object" height="512" viewBox="0 0 100 100" width="512" xmlns="http://www.w3.org/2000/svg"><g id="_4"><g><path d="m88.359 15.097-13.843-5.441c-15.811-6.213-33.223-6.213-49.033 0l-13.843 5.441c-.382.15-.634.52-.634.931v19.383c0 17.71 7.852 34.312 21.54 45.549l16.818 13.805c.185.151.41.227.635.227s.45-.075.635-.227l16.818-13.805c13.688-11.237 21.54-27.839 21.54-45.549v-19.384c0-.411-.252-.78-.634-.931zm-1.366 20.313c0 17.108-7.585 33.147-20.81 44.003l-16.184 13.283-16.184-13.283c-13.225-10.855-20.81-26.895-20.81-44.003v-18.701l13.209-5.192c15.336-6.029 32.23-6.027 47.568 0l13.209 5.192v18.701z"/><path d="m50 10.01c-7.796 0-15.429 1.446-22.688 4.3l-10.671 4.194c-.382.15-.634.52-.634.931v15.976c0 16.208 7.186 31.4 19.713 41.683l13.646 11.201c.185.151.41.228.635.228s.45-.076.635-.228l13.646-11.2c12.527-10.283 19.713-25.476 19.713-41.684v-15.976c0-.411-.252-.78-.634-.931l-10.671-4.194c-7.26-2.854-14.893-4.3-22.688-4.3zm31.993 25.4c0 15.606-6.919 30.236-18.982 40.138l-13.011 10.68-13.011-10.68c-12.063-9.901-18.982-24.531-18.982-40.138v-15.294l10.037-3.945c7.024-2.761 14.412-4.161 21.956-4.161s14.932 1.4 21.956 4.161l10.037 3.945z"/><path d="m68.726 51.775-20.582-15.372 2.098-2.098c.391-.391.391-1.023 0-1.414-.494-.495-.767-1.152-.767-1.852s.272-1.356.767-1.851c1.02-1.02 2.679-1.021 3.702 0 .195.195.451.293.707.293s.512-.098.707-.293l3.042-3.042c.391-.391.391-1.023 0-1.414l-9.418-9.419c-.188-.188-.441-.293-.707-.293s-.52.105-.707.293l-3.042 3.042c-.391.391-.391 1.023 0 1.414 1.021 1.021 1.021 2.682 0 3.702s-2.682 1.021-3.703 0c-.375-.375-1.039-.375-1.414 0l-8.629 8.63c-.391.391-.391 1.023 0 1.414 1.021 1.021 1.021 2.682 0 3.702s-2.682 1.021-3.703 0c-.391-.391-1.023-.391-1.414 0l-3.042 3.042c-.391.391-.391 1.023 0 1.414l9.419 9.419c.195.195.451.293.707.293s.512-.098.707-.293l3.042-3.042c.391-.391.391-1.023 0-1.414-.494-.495-.767-1.152-.767-1.852s.272-1.356.767-1.851c1.021-1.021 2.681-1.019 3.702 0 .195.195.451.293.707.293s.512-.098.707-.293l2.098-2.098 15.372 20.582c1.197 1.603 3.028 2.604 5.023 2.748.166.012.332.018.497.018 1.82 0 3.573-.721 4.87-2.018 1.415-1.414 2.145-3.37 2.001-5.366-.145-1.996-1.146-3.827-2.749-5.024zm-22.156-32.635 1.705-1.705 8.004 8.005-1.705 1.705c-.754-.48-1.617-.721-2.481-.721s-1.726.24-2.48.721l-1.521-1.521-1.521-1.521c.96-1.507.96-3.454 0-4.962zm-12.119 28.128-1.704 1.704-8.005-8.005 1.705-1.705c1.507.96 3.454.962 4.963 0l1.519 1.52 1.522 1.522c-.47.734-.722 1.589-.722 2.481s.252 1.748.722 2.482zm6.377-6.377c-.754-.48-1.617-.721-2.48-.721s-1.727.24-2.481.721l-1.521-1.521-1.521-1.521c.96-1.507.96-3.454 0-4.962l7.369-7.37c1.508.961 3.455.961 4.963 0l1.519 1.52 1.522 1.522c-.47.734-.722 1.589-.722 2.481s.252 1.748.722 2.482l-2.284 2.284-2.8 2.8-2.285 2.285zm27.231 19.861c-1.005 1.004-2.393 1.521-3.81 1.419-1.416-.102-2.716-.812-3.565-1.95l-15.545-20.813 1.575-1.575 20.813 15.545c1.138.851 1.849 2.15 1.951 3.566.102 1.417-.416 2.805-1.42 3.809z"/></g></g></svg>
